<svg xmlns="http://www.w3.org/2000/svg" viewBox="0 0 13.17 8.48"><title>eye-open-icon</title><g id="Layer_2" data-name="Layer 2"><g id="Layer_1-2" data-name="Layer 1"><path d="M6.58,0A7.12,7.12,0,0,0,0,4.24a7.23,7.23,0,0,0,13.17,0A7.13,7.13,0,0,0,6.58,0Zm0,1A6.35,6.35,0,0,1,12.1,4.24,6.37,6.37,0,0,1,6.58,7.48h0A6.39,6.39,0,0,1,1.06,4.24,6.37,6.37,0,0,1,6.58,1Zm0,.42A2.82,2.82,0,1,0,9.41,4.24,2.82,2.82,0,0,0,6.58,1.42Zm0,1.05A1.77,1.77,0,1,1,4.82,4.24,1.77,1.77,0,0,1,6.58,2.47Z" style="fill:#f69c00"/></g></g></svg>