<svg xmlns="http://www.w3.org/2000/svg" viewBox="0 0 13.17 10.02"><title>eye-closed-icon</title><g id="Layer_2" data-name="Layer 2"><g id="Layer_1-2" data-name="Layer 1"><path d="M10.88,0,9.51,1.37l-.78.78-.54.54-.77.77L5,5.85l-.77.77-.8.8-.73.73L1.57,9.31l.71.71L3.66,8.64l.77-.77L5,7.32l.77-.76L8.13,4.17,8.9,3.4l.8-.8.74-.74L11.59.71ZM6.58.77A7.12,7.12,0,0,0,0,5,7.26,7.26,0,0,0,2.32,7.86L3,7.14A6.48,6.48,0,0,1,1.06,5,6.37,6.37,0,0,1,6.58,1.77,5.5,5.5,0,0,1,8.2,2l.8-.8A7.18,7.18,0,0,0,6.58.77Zm4.28,1.38-.72.72A6.29,6.29,0,0,1,12.1,5,6.37,6.37,0,0,1,6.58,8.25h0A6.32,6.32,0,0,1,5,8l-.79.8a7.3,7.3,0,0,0,2.41.41A7.19,7.19,0,0,0,13.17,5,7.24,7.24,0,0,0,10.86,2.15Zm-4.28,0A2.82,2.82,0,0,0,3.76,5,2.76,2.76,0,0,0,4,6.16l.84-.83a1.73,1.73,0,0,1,0-.32A1.76,1.76,0,0,1,6.58,3.25a1.66,1.66,0,0,1,.32,0l.84-.84A2.77,2.77,0,0,0,6.58,2.19ZM9.15,3.85l-.83.84a1.66,1.66,0,0,1,0,.32A1.76,1.76,0,0,1,6.58,6.77a1.73,1.73,0,0,1-.32,0l-.84.84A2.81,2.81,0,0,0,9.15,3.85Z" style="fill:#f69c00"/></g></g></svg>